<?xml version="1.0" standalone="no"?>
<!DOCTYPE svg PUBLIC "-//W3C//DTD SVG 20010904//EN"
 "http://www.w3.org/TR/2001/REC-SVG-20010904/DTD/svg10.dtd">
<svg version="1.0" xmlns="http://www.w3.org/2000/svg"
 width="579.000000pt" height="332.000000pt" viewBox="0 0 579.000000 332.000000"
 preserveAspectRatio="xMidYMid meet">

<g transform="translate(0.000000,332.000000) scale(0.100000,-0.100000)"
fill="#000000" stroke="none">
<path d="M2456 2689 c-4 -24 -13 -105 -22 -179 -8 -74 -21 -182 -28 -240 -14
-116 -16 -104 49 -285 25 -71 59 -168 75 -215 17 -47 49 -141 73 -210 l44
-125 36 -3 c52 -5 150 34 193 76 53 51 84 130 95 237 14 146 22 133 -73 119
-194 -27 -187 -27 -193 -2 -3 13 -2 57 3 97 8 64 6 82 -10 125 -11 28 -25 69
-33 91 -7 22 -45 132 -85 245 -40 113 -79 225 -87 250 -22 64 -31 68 -37 19z"/>
<path d="M3047 2363 c-5 -9 -22 -135 -37 -277 -6 -54 -13 -102 -16 -107 -3 -5
3 -21 14 -37 10 -15 43 -72 72 -127 29 -55 76 -143 105 -195 29 -52 62 -113
73 -135 l20 -39 5 29 c3 17 11 71 17 120 6 50 16 107 21 127 11 41 18 45 191
94 l97 27 7 65 c8 80 -11 124 -68 153 -108 55 -208 -18 -208 -153 0 -20 -4
-39 -8 -42 -5 -3 -29 34 -55 82 -154 294 -225 423 -230 415z"/>
<path d="M2170 2019 c0 -6 -10 -10 -22 -9 -51 4 -44 24 -73 -205 -28 -214 -29
-265 -9 -302 36 -67 127 -93 191 -53 62 37 65 51 98 390 21 211 28 189 -60
187 -41 -1 -75 -5 -75 -9 0 -4 -11 -3 -25 2 -17 6 -25 6 -25 -1z"/>
<path d="M2600 1026 l0 -146 35 0 35 0 0 63 c0 93 13 102 45 31 40 -91 39 -89
79 -89 37 0 38 1 65 69 38 96 51 96 51 1 l0 -76 38 3 37 3 3 120 c4 164 3 165
-58 165 -43 0 -52 -3 -60 -22 -53 -132 -69 -163 -79 -163 -7 0 -29 41 -49 90
l-37 90 -53 3 -52 3 0 -145z"/>
<path d="M3030 1166 c0 -3 27 -48 60 -100 50 -80 60 -103 60 -141 l0 -45 40 0
40 0 0 44 c0 38 10 61 60 140 33 53 60 98 60 101 0 3 -18 5 -39 5 -38 0 -42
-3 -77 -60 -20 -33 -40 -60 -43 -60 -3 0 -23 27 -44 60 -36 57 -40 60 -78 60
-21 0 -39 -2 -39 -4z"/>
<path d="M1887 783 c-2 -5 -3 -69 -3 -143 l1 -135 38 -3 37 -3 0 75 c0 45 4
76 10 76 10 0 50 -79 65 -128 6 -19 12 -23 42 -20 39 3 39 3 78 93 31 72 45
62 45 -32 l0 -63 35 0 35 0 0 145 0 145 -53 0 -53 0 -22 -50 c-12 -28 -22 -54
-22 -60 0 -19 -34 -80 -43 -77 -5 1 -17 23 -27 47 -9 25 -27 66 -38 93 -21 47
-21 47 -71 47 -27 0 -52 -3 -54 -7z"/>
<path d="M2350 687 c0 -117 10 -141 74 -171 68 -32 174 -9 202 45 20 40 28
107 19 174 l-7 56 -36 -3 -37 -3 -3 -95 c-2 -82 -5 -97 -23 -112 -26 -22 -58
-23 -85 -4 -16 12 -20 30 -24 113 l-5 98 -37 3 -38 3 0 -104z"/>
<path d="M2763 776 c-35 -16 -53 -43 -53 -80 0 -37 46 -65 119 -72 71 -8 97
-28 66 -51 -25 -18 -95 -11 -107 11 -6 10 -23 16 -48 16 -32 0 -40 -4 -40 -18
0 -39 80 -82 152 -82 95 1 163 62 134 121 -9 19 -28 28 -91 44 -98 25 -110 32
-94 51 15 18 70 18 95 -1 10 -8 34 -15 52 -15 29 0 33 3 30 21 -8 56 -140 89
-215 55z"/>
<path d="M3040 760 c0 -25 4 -30 25 -30 25 0 25 -1 25 -80 0 -77 -1 -80 -25
-86 -20 -5 -25 -13 -25 -35 l0 -30 93 3 92 3 3 28 c3 21 -1 27 -16 27 -33 0
-43 24 -40 96 3 63 5 69 28 74 18 4 26 13 28 33 l3 27 -95 0 -96 0 0 -30z"/>
<path d="M3366 780 c-38 -12 -65 -37 -82 -79 -19 -45 -18 -67 6 -116 24 -49
86 -85 146 -85 70 1 154 54 154 97 0 24 -69 15 -103 -13 -79 -67 -176 48 -102
121 32 33 75 32 114 0 55 -47 111 -7 59 43 -43 40 -121 53 -192 32z"/>
<path d="M3703 779 c-63 -18 -84 -91 -38 -128 16 -12 49 -22 90 -26 74 -8 101
-28 70 -52 -25 -18 -95 -11 -107 11 -10 18 -88 23 -88 5 0 -44 75 -88 149 -89
96 0 174 69 138 123 -15 23 -106 57 -153 57 -10 0 -26 5 -34 10 -13 9 -12 12
4 25 25 19 67 19 92 0 28 -21 84 -20 84 3 -1 58 -107 90 -207 61z"/>
</g>
</svg>
